/* XPM */
static char * collectible_xpm[] = {
"32 32 32 1",
" 	c #212121",
".	c #272830",
"+	c #2F3248",
"@	c #333A57",
"#	c #333B4E",
"$	c #404847",
"%	c #3F496A",
"&	c #404977",
"*	c #545D4F",
"=	c #4E5C89",
"-	c #515E68",
";	c #59687C",
">	c #667477",
",	c #778771",
"'	c #82928F",
")	c #839474",
"!	c #86967C",
"~	c #56AC37",
"{	c #64B13C",
"]	c #6BB43D",
"^	c #93A479",
"/	c #77B741",
"(	c #A2B27D",
"_	c #AFC082",
":	c #D3D35C",
"<	c #DADB7B",
"[	c #FCE8B1",
"}	c #EEEEC2",
"|	c #E9F2D8",
"1	c #F4F4D7",
"2	c #F1F6E7",
"3	c #FFFFFF",
"::::::::::::::::::::::::::::::::",
"::::}::::::::::::::::::::22:::::",
"::::2:::::::::::::::::::|32}::::",
"::::~]::::::::::::::::::~::2::::",
":::::~::::::::::::::::::~:]~}:::",
":::::~::::::::::::::::::~]~:3|::",
":::::{:::::::::::::::::::~~/~~::",
"::::::::::::::::::::::::::{:::::",
":::::::::}:::::::::[::::::::::::",
"::::}::::2:::::::::/[:::::::::::",
"::::2]:::~::::::::::~:~:[:::::::",
":::::~]]~~:::>'';=&:~~:[~:::::::",
"::::::~~:]~~'____)&&~~:~::::::::",
":::::::~~~::_())^_>&+:~~::::::::",
":::::::{/]:!_)(_^_,&+:~:::::::::",
":::::::::~:'_)^__^-&@.~:::::::::",
":::::::::{:=(^,,)->&@.::::::::::",
":::::::::::=!(,#%,_,@ ::::::::::",
":::::::::[:@;,%&&>().:::::::::::",
":::::::::~[:@&&,;-*  :::::::11::",
"::::::::::~:~++$#.  :::::12:<21:",
"::::::::::~~:~...::::::::<3|:~]:",
"::}:::}::::~:~:~:::::::}:::~::~:",
"::2:::3::::~::::::::::13|::~:]~:",
"::~::]2::::::::::::::::~:::~:~::",
"::~::~:::::::::::::::::~~]:~~]::",
"::~]:~:::::::::::::::::::~::~:::",
":::~:{:::::::::::::::::::~::~/::",
":::{:::::::::::::::::::::{::::::",
"::::::::::::::::::::::::::::::::",
"::::::::::::::::::::::::::::::::",
"::::::::::::::::::::::::::::::::"};
