/* XPM */
static char * exit_xpm[] = {
"32 32 32 1",
" 	c #000000",
".	c #2C2F3E",
"+	c #5C4950",
"@	c #454F77",
"#	c #515542",
"$	c #6E4E3F",
"%	c #525C22",
"&	c #576364",
"*	c #835D35",
"=	c #8A6129",
"-	c #816930",
";	c #6A7334",
">	c #7A8241",
",	c #7F8C7A",
"'	c #AF8520",
")	c #A4874D",
"!	c #889050",
"~	c #8F9061",
"{	c #5BAE39",
"]	c #B8953E",
"^	c #9AA361",
"/	c #9CA980",
"(	c #B0B97A",
"_	c #E9B94A",
":	c #C0C37C",
"<	c #C0C98A",
"[	c #CAD15B",
"}	c #D3D35C",
"|	c #E0E6AA",
"1	c #E1E89E",
"2	c #FCE8B1",
"3	c #FFFFFF",
"}}}}}}}}}             }}}}}}}}}}",
"}}}}|}}} ,<1::^^^^(:</ }}33}}}}}",
"}}}}3}} #11(((^^^^((<11 |33|}}}}",
"}}}}{{ ,:^^(<&,,&@@<(^^: }}3}}}}",
"}}}}  ,1<^^^,((((,@@^^^<1  {|}}}",
"}}} /<1||<(>(/,,/(&@.(<|||/ 3|}}",
"}} ~:1|<(((,(,/(/(,@.(((<|1: {}}",
"} 1<^<|<(((,(,/((/&@..((<|<^1 }}",
"} 1|^>^((((@//,,,&&@..(((^>^|1 }",
" |||<^!((((@,/,.@,(,..(((!^<||  ",
" 1|||<!>;!^.&,@@@&/,.^!;>!<|||1 ",
" 1||<((^%;^>.@@,&&#..^;%^((<||1 ",
" ^|<(((<!%%%%..#....%%%!<(((<|^ ",
"  ^<((((^>>!>%...%%>!>>^((((<^  ",
"}} >^^^(^^^^^!!^^!!^^^^^(^^^> }}",
"}}  %;>!^^^^^^^^^^^^^^^^!>;%  }}",
"}} ' ##%>^^^^^^^^^^^^^^>%%# = }}",
"}} ''    ;;;;;;;;;;;;;;    *= }}",
"}} _' =                  = =' }}",
"}}  _ = *=$++++++++++$=* = '  }}",
"}} :  ]                  ]  ' 3}",
"}} _: ] *), -------- ,)* ] '' {}",
"}} __ ] =_) -------- )_= ] '' {}",
"}} __ ] *_) -------- )_* ] '' {}",
"}}  _ ] =_) -------- )_= ] '  }}",
"}} (  ] $=$  ------- $=$ ]  ) }}",
"}} _< ]      -------     ] )' }}",
"}} __ ] =_)  $$$$$$$ )_= ] '' }}",
"}} __ ] *_) +$$$$$$$ )_* ] '' }}",
"}} )_ ] *_) $$$$$$$$ )_* ] '= }}",
"}}}   ] *'* ++++++++ *'* ] = }}}",
"}}}}                        }}}}"};
