/* XPM */
static char * collectible_xpm[] = {
"32 32 10 1",
" 	c None",
".	c #212121",
"+	c #292931",
"@	c #313952",
"#	c #424A7B",
"$	c #52639C",
"%	c #526B6B",
"&	c #849473",
"*	c #9CAD7B",
"=	c #B5C684",
"                                ",
"                                ",
"                                ",
"                                ",
"                                ",
"                                ",
"              $$$$$             ",
"           $$$$$$$$$$           ",
"        $$%&*==*&%#####         ",
"       $$&=======*&%####        ",
"       $*==========&%###@       ",
"      #&====**&**==*&###@@      ",
"      %===*&&%%%&*==&%##@@@     ",
"      &===&&%*=&%&==*&@##@@+    ",
"      *==*&%*===&&==*&@##@@+    ",
"     $===&&%====*&==&&@##@@++   ",
"     $===&&%*======*&%@##@@++   ",
"     $*==*&&&*=====&&#@###@++   ",
"    #$&==*&&%&&***&&%@####@++   ",
"    $$%&==&&&%&&&&%#@&####@.+   ",
"    $$$*==*&&&#%%#@@#=&###@.+   ",
"    #$$&=&=*&%@@@@#%&==*&#@..   ",
"    @#$$&==*%@@@##&*===&#@@..   ",
"    @@@$%*=#@@#####%*===%@...   ",
"     @@@#%@@########&=%&&...    ",
"     @@@@#####%&%##@&&@.....    ",
"      @@@@####&*&##@&+.....     ",
"       @@@@@##%&%#@@.......     ",
"        @@@+++++++........      ",
"         @++++++++.....         ",
"          +++++++++.            ",
"                                "};
