/* XPM */
static char * player_xpm[] = {
"32 32 32 1",
" 	c #023099",
".	c #313129",
"+	c #3F3F3F",
"@	c #604820",
"#	c #0468D0",
"$	c #705838",
"%	c #B88040",
"&	c #55AC37",
"*	c #5CAF3A",
"=	c #64B13C",
"-	c #6BB43D",
";	c #73B640",
">	c #A0A0A0",
",	c #83BA44",
"'	c #F0C087",
")	c #CAD15B",
"!	c #D2D25D",
"~	c #D3D35C",
"{	c #D6D667",
"]	c #DADB7B",
"^	c #F8D8AF",
"/	c #E9E8E7",
"(	c #DFEED0",
"_	c #FCE8B1",
":	c #EEEEC2",
"<	c #F4F4D7",
"[	c #EDF5E6",
"}	c #F0F6E7",
"|	c #F7F7E2",
"1	c #F9F9EC",
"2	c #FBFCF5",
"3	c #FFFFFF",
"~~~~~~~~~~~~~~~~~~~~~~~~!~~~~~~~",
"~~~~:~~~~~~~!~~~~~~~~~~~~||~~~~~",
"~~~~}~~~~~~~~~~~~~~~~~~~(21:~~~~",
"~~~~*-~~~~~~~~~~~~~~~~~~&~~}~~~~",
"~~~~~&~~~~~~~~~~~~~~~~~~&~-*:~~~",
"~~~~~&~~~~~..~~~~~~~..~~*-&~2(~~",
"~~~~~=~~~~.@@.~~~~~.@@.~~*&;&*~~",
"~~~~~~~~~.@^^%.....%^^@.~~=~~~~~",
"~~~~~~~~~.%^^.%%%%%.^^%.~~~~~~~~",
"~~~~:~~~~.%^%%@@@@@%%^%.~~~~~~~~",
"~~~~[-~~~&.%@/@@@@@/@%.~_~~~~~~~",
"~~~~~*--&*.@/ /@@@/ /@._&~~~~~~~",
"~!~~~~*&~.%@/ /@@@/ /@%.~~~~~~~~",
"~~~~~~~&&.%@//@%%%@//@%.~~~~~~~~",
"~~~~~~~=;.%%@@%@$@%@@%%.~~~~~~~~",
"~~~~~~~~~&.%%%%@@@%%%%.~~~~~~~~~",
"~~~~~~~~~=~.%%%%%%%%%.~~~~~~~~~~",
"~~~~~~~~~~~...%%%%%...~~~~~~~~~~",
"~~~~~~~~~_~.%%'^^^'%%.~~~~~~~~~~",
"~~~~~~~~~&.%.%^^^^^%.%.~~~~~<<~~",
"~~~~~~~~~~.@.'^^^^^.@@.~~<|~]2<~",
"~~~~~~~~~~&.. #>###.$@.~~]2(~*-~",
"~~:~~~:~~~~&.###>>##..{:{~~&~~&~",
"~~}~~~3~~~~&. ##>## .+<3(~~&~-*~",
"~~&~~-[~~~~.$$$@....++~&~~~&)*~~",
"~~&~~&~~~~~.@.@@.+++++~*&-~*&-~~",
"~~*-~&~~~~~~....++++~~~~~&~~&~~~",
"~~~&~=~~~~~~~~~~~~~~~~~~~&~~*;~~",
"~~~=~~~~~~~~~~~~~~~~~~~~~=~~~~~~",
"~~~~~~~~~~~~~~~~~~~~~~~~~~~~~~~~",
"~~~~~~~~~~~~~~~~~~~~~~~~~~~~~~~~",
"!~~~~~~~~~~~~~~~~~~~~~~~~~~~~~~~"};
