/* XPM */
static char * playerback_xpm[] = {
"32 32 32 1",
" 	c #023099",
".	c #313129",
"+	c #3F3F3F",
"@	c #604820",
"#	c #0468D0",
"$	c #705838",
"%	c #B88040",
"&	c #55AC37",
"*	c #58AE37",
"=	c #5CAF3A",
"-	c #64B13C",
";	c #6AB33E",
">	c #6BB43D",
",	c #73B640",
"'	c #83BA44",
")	c #CAD15B",
"!	c #D2D25D",
"~	c #D3D35C",
"{	c #D6D667",
"]	c #DADB7B",
"^	c #DCEDCE",
"/	c #FCE8B1",
"(	c #E0EED1",
"_	c #EEEEC2",
":	c #F4F4D7",
"<	c #EDF5E6",
"[	c #F0F6E7",
"}	c #F7F7E2",
"|	c #F9F9EC",
"1	c #F7FBF3",
"2	c #FCFCF5",
"3	c #FFFFFF",
"~~~~~~~~~~~~~~~~~~~~~~~~!~~~~~~~",
"~~~~_~~~~~~~!~~~~~~~~~~~~}}~~~~~",
"~~~~[~~~~~~~~~~~~~~~~~~~(2|_~~~~",
"~~~~=>~~~~~~~~~~~~~~~~~~&~~[~~~~",
"~~~~~&~~~~~~~~~~~~~~~~~~&~>=_~~~",
"~~~~~&~~~~~..~~~~~~~..~~=>&~2(~~",
"~~~~~-~~~~.@@.~~~~~.@@.~~=&,&=~~",
"~~~~~~~~~.@@%%.....%%@@.~~-~~~~~",
"~~~~~~~~~.%%%.%%%%%.%%%.~~~~~~~~",
"~~~~_~~~~.%%%%%%%%%%%%%.~~~~~~~~",
"~~~~<>~~~&.%%%%%%%%%%%.~/~~~~~~~",
"~~~~~=>>&=.%%%%%%%%%%%./&~~~~~~~",
"~!~~~~=*~.%%%%%%%%%%%%%.~~~~~~~~",
"~~~~~~~&&.%%%%%%%%%%%%%.~~~~~~~~",
"~~~~~~~-,.%%%%%%%%%%%%%.~~~~~~~~",
"~~~~~~~~~&.%%%%%%%%%%%.~~~~~~~~~",
"~~~~~~~~~-~.%%%%..%%%.~~~~~~~~~~",
"~~~~~~~~~~~..%%.@@.%..~~~~~~~~~~",
"~~~~~~~~~/..%%.@@@@.%..~~~~~~~~~",
"~~~~~~~~~&.%.%.%@@%..%.~~~~~::~~",
"~~~~~~~~~.@@.%.%%%%..@@.~:}~]1:~",
"~~~~~~~~~.@$. #.%%. .$@.~]2(~=>~",
"~~_~~~_~~~...%%%.%.%..._{~~&~~&~",
"~~[~~~3~~~.$$@@...@@$$.3^~~&~>=~",
"~~&~~><~~~.@@@@...@@@@.&~~~&)=~~",
"~~&~~&~~~~~....+++....~=&>~*&>~~",
"~~=;~&~~~~~~~~~~~~~~~~~~~&~~&~~~",
"~~~&~-~~~~~~~~~~~~~~~~~~~&~~=,~~",
"~~~-~~~~~~~~~~~~~~~~~~~~~-~~~~~~",
"~~~~~~~~~~~~~~~~~~~~~~~~~~~~~~~~",
"~~~~~~~~~~~~~~~~~~~~~~~~~~~~~~~~",
"!~~~~~~~~~~~~~~~~~~~~~~~~~~~~~~~"};
