/* XPM */
static char * player_xpm[] = {
"32 32 13 1",
" 	c #003098",
".	c #31312A",
"+	c #3F3F3F",
"@	c #604820",
"#	c #0068D0",
"$	c #705838",
"%	c #787850",
"&	c #B88040",
"*	c #A0A0A0",
"=	c #F0C087",
"-	c #F7D8AF",
";	c #E8E8E7",
">	c #FFFFFF",
">>>>>>>>%%%%%%%%%%%%%%%%>>>>>>>>",
">>>>>>>>%%%%%%%%%%%%%%%%>>>>>>>>",
">>>>>>>>%%%%%%%%%%%%%%%%>>>>>>>>",
">>>>>>>>%%%%%%%%%%%%%%%%>>>>>>>>",
">>>>>>>>%%%%%%%%%%%%%%%%>>>>>>>>",
">>>>>>>>%%%%%%%%%%%%%%%%>>>>>>>>",
">>>>>>>>%%%%%%%%%%%%%%%%>>>>>>>>",
">>>>>>>>%%%%%%%%%%%%%%%%>>>>>>>>",
">>>>>>>>%%%%%%%%%%%%%%%%>>>>>>>>",
">>>>>>>>%%%%%%%%%%%%%%%%>>>>>>>>",
">>>>>>>>%%..%%%%%%%..%%%>>>>>>>>",
">>>>>>>>%.@@.%%%%%.@@.%%>>>>>>>>",
">>>>>>>>.@--&.....&--@.%>>>>>>>>",
">>>>>>>>.&--.&&&&&.--&.%>>>>>>>>",
">>>>>>>>.&-&&@@@@@&&-&.%>>>>>>>>",
">>>>>>>>%.&@;@@@@@;@&.%%>>>>>>>>",
">>>>>>>>%.@; ;@@@; ;@.%%>>>>>>>>",
">>>>>>>>.&@; ;@@@; ;@&.%>>>>>>>>",
">>>>>>>>.&@;;@&&&@;;@&.%>>>>>>>>",
">>>>>>>>.&&@@&@$@&@@&&.%>>>>>>>>",
">>>>>>>>%.&&&&@@@&&&&.%%>>>>>>>>",
">>>>>>>>%%.&&&&&&&&&.%%%>>>>>>>>",
">>>>>>>>%%...&&&&&...%%%>>>>>>>>",
">>>>>>>>%%.&&=---=&&.%%%>>>>>>>>",
">>>>>>>>%.&.&-----&.&.%%>>>>>>>>",
">>>>>>>>%.@.=-----.@@.%%>>>>>>>>",
">>>>>>>>%%.. #*###.$@.%%>>>>>>>>",
">>>>>>>>%%%.###**##..%%%>>>>>>>>",
">>>>>>>>%%%. ##*## .+%%%>>>>>>>>",
">>>>>>>>%%.$$$@....++%%%>>>>>>>>",
">>>>>>>>%%.@.@@.+++++%%%>>>>>>>>",
">>>>>>>>%%%....++++%%%%%>>>>>>>>"};
