/* XPM */
static char * wall_xpm[] = {
"32 32 6 1",
" 	c #000000",
".	c #8C5527",
"+	c #5A9731",
"@	c #E3A14D",
"#	c #A7C947",
"$	c #FCE8B1",
"$$$$$$$#                 #$$$$$$",
"$$$$$#   +####+   +####+   #$$$$",
"$$$$# +####++++##+++++####+ +$$$",
"$$$+   +#+++#########+++#+    $$",
"$$  +###+++############++###+  $",
"$+ +###+++#############++####+ #",
"$ +####+++#############+++####  ",
"+ +####+++#############+++####+ ",
" ++####++++###++######+++#####+ ",
" ++#####+++++++++###+++++####++ ",
" +++####++++++++++++++++#####++ ",
"  ++#######++##++++##+####+##+  ",
"  +++#+#########++########+#++  ",
"+ + +++##############+###+++ + +",
"    ++++#+###+#######++##+++    ",
" +  ++ ++++#++###+##++++++++  + ",
" ++  + ++++++++##++++++++ +  ++ ",
" +++   ++++ ++++++++++ ++   +++ ",
"  ++++  +++ +++++ ++++ +  ++++  ",
"@ + +++      +++   ++    +++ + @",
"    ++++++++     +    ++++++    ",
" @   ++++++++++++++++++++++   @ ",
" @@@  ++ ++++++++++++ ++++  @@@ ",
"  @@       +++   +++        @@  ",
"@  . @$@@...    .    ...@@. ..  ",
"@@. @$$$@@@@@@.........@@$@.  .@",
"$@ .$$$@@. .@$$$$@... ..@@$@. @@",
"$@ @$@@.    .$$$$@..    .@@@@ .@",
"$$ .@.   .. .@$$@@.. ..   .@...@",
"$$@   ...... .@@@..  ....    .@$",
"$$$$$$@@@@@@.  @.   ....@@@@@@$$",
"$$$$$$$$$@@@@.    ....@@$$$$$$$$"};

