/* XPM */
static char * wall_xpm[] = {
"32 32 32 1",
" 	c #000000",
".	c #8C5527",
"+	c #5A9731",
"@	c #55AC37",
"#	c #58AE37",
"$	c #5CAF3A",
"%	c #64B13C",
"&	c #6AB33E",
"*	c #6BB43D",
"=	c #73B640",
"-	c #83BA44",
";	c #E3A14E",
">	c #A7C946",
",	c #CAD15B",
"'	c #CFD15C",
")	c #D2D25D",
"!	c #D3D35C",
"~	c #D6D667",
"{	c #DADB7B",
"]	c #DCEDCE",
"^	c #FCE8B1",
"/	c #E0EED1",
"(	c #EEEEC2",
"_	c #E9F0D1",
":	c #F4F4D7",
"<	c #EDF5E6",
"[	c #F0F6E7",
"}	c #F7F7E2",
"|	c #F9F9EC",
"1	c #F7FBF3",
"2	c #FCFCF5",
"3	c #FFFFFF",
"!!!!!!!!        !        _!!!!!!",
"!!!!(!   +>>>>+   +>>>>+   !!!!!",
"!!!![ +>>>>++++>>+++++>>>>+ !!!!",
"!!!!   +>+++>>>>>>>>>+++>+    !!",
"!!  +>>>+++>>>>>>>>>>>>++>>>+  !",
"!! +>>>+++>>>>>>>>>>>>>++>>>>+ !",
"! +>>>>+++>>>>>>>>>>>>>+++>>>>  ",
"! +>>>>+++>>>>>>>>>>>>>+++>>>>+ ",
" ++>>>>++++>>>++>>>>>>+++>>>>>+ ",
" ++>>>>>+++++++++>>>+++++>>>>++ ",
" +++>>>>++++++++++++++++>>>>>++ ",
"  ++>>>>>>>++>>++++>>+>>>>+>>+  ",
"  +++>+>>>>>>>>>++>>>>>>>>+>++  ",
"! + +++>>>>>>>>>>>>>>+>>>+++ + !",
"    ++++>+>>>+>>>>>>>++>>+++    ",
" +  ++ ++++>++>>>+>>++++++++  + ",
" ++  + ++++++++>>++++++++ +  ++ ",
" +++   ++++ ++++++++++ ++   +++ ",
"  ++++  +++ +++++ ++++ +  ++++  ",
"! + +++      +++   ++    +++ + !",
"    ++++++++     +    ++++++    ",
" ;   ++++++++++++++++++++++   ; ",
" ;;;  ++ ++++++++++++ ++++  ;;; ",
"  ;;       +++   +++        ;;  ",
"!  . ;^;;...    .    ...;;. .  !",
"!!   ^^^;;;;;;.........;;^;   !!",
"!! .^^^;;. .;^^^^;... ..;;^;. !!",
"!! ;^;;.    .^^^^;..    .;;;; !!",
"!! .;.   !! .;^^;;.. !!   .;. !!",
"!!    !!!!!  .;;;..  !!!!     !!",
"!!!!!!!!!!!!   ;.   !!!!!!!!!!!!",
")!!!!!!!!!!!!!    !!!!!!!!!!!!!!"};
