/* XPM */
static char * water2_xpm[] = {
"32 32 32 1",
" 	c #0198FF",
".	c #0299FF",
"+	c #059BFF",
"@	c #149AFF",
"#	c #0C9DFF",
"$	c #109EFF",
"%	c #109FFF",
"&	c #0BA2FF",
"*	c #14A1FF",
"=	c #19A3FF",
"-	c #17A4FE",
";	c #1FA2FE",
">	c #1AA5FF",
",	c #1CA6FF",
"'	c #1DA7FF",
")	c #1BA9FF",
"!	c #1AACFF",
"~	c #21ABFF",
"{	c #21AEFF",
"]	c #21B1FF",
"^	c #27B3FF",
"/	c #21B5FF",
"(	c #23B7FF",
"_	c #26B9FF",
":	c #25BDFF",
"<	c #28BFFF",
"[	c #29C1FF",
"}	c #2AC4FF",
"|	c #2BC6FF",
"1	c #2CC8FF",
"2	c #32C9FF",
"3	c #2DCBFF",
"'''''''''''',,''','''''''''',,,,",
"''''>>>=~|!-',,'''''''''''''*@+@",
"'',~<[[<<2[];-''''''',',---'% @.",
"'',)::_[323[/^,''''''',)///~&$@.",
"'>,'--;{[[[[}:,''''>>,>{|||],>@.",
"-.#'''',,,,,,,''''=..&'',''''-@@",
"+..@#''''''''''''=. .+*'''')*+@@",
".$*%*'''''',->>,'>%%@ +%%%%*+ ..",
".%,'''''''>!^]^)>'''%#$##.. #%$$",
"@.#''''''''_2|1]''''''''-@@.='''",
"@.$'''',='2_,)'[3:;--,'',>>>,'',",
"@@+$$''{::({>,,]/_:::{>'''',>>',",
"@@..@&*)[:,>'''>;{[<[{>',,>{^],>",
"+++@@. +>>''''''',---,''~))[3}~)",
",'=.@@.#'''''''''''''',~12122211",
"'',->-->''''''''''''%###--~]{{{{",
"''',,>''''''-%%%%%%%+...  #$=,,>",
"','{{{~>,'''&@+.....@@@@@@. %,>-",
"',]213_>'''',''#@@@@@@@@@@@@@@@@",
"-:[))'_2|~,',,,'% ...@@@@@@.....",
",]^,,-{/^%#='','-*&&=#....%=&&&&",
"&**==,,-=##%=-'''''''*####>'''''",
"@.@.@>,,,''% $','''''''''',,,'',",
"@@@@@+@#''',>>'';]2|)=>','',''',",
"@@@.. #=',''',-=(:^/:<^>''''''''",
"@.+$$#=',,,,>~/^</;-:[/>'''>&==&",
"#+$''',,,,,,-]11!=''>-,'',,%.@@.",
",,,,,,,,,''',,'',''''''''#+@@@@@",
",,,,,,'''$#='',,,'''''*##..@@++@",
",,,,,'=%%@.#*%,'''''''&$$%%#.@@@",
",,,,,'%@+@@@..&>->'''''''''%+##+",
",,,,,,,',+@@@@@@.%'''',,,'',,,,,"};
