/* XPM */
static char * water1_xpm[] = {
"32 32 32 1",
" 	c #0694FF",
".	c #0895FF",
"+	c #0098FF",
"@	c #0697FF",
"#	c #0299FF",
"$	c #059BFF",
"%	c #0B9CFF",
"&	c #149AFF",
"*	c #119EFF",
"=	c #109FFF",
"-	c #0BA2FF",
";	c #13A1FF",
">	c #17A4FE",
",	c #1AA3FF",
"'	c #1AA5FF",
")	c #1BA6FF",
"!	c #1CA7FF",
"~	c #1DA9FE",
"{	c #1AAAFF",
"]	c #19ADFF",
"^	c #23AEFF",
"/	c #1FB0FF",
"(	c #21B3FF",
"_	c #21B5FF",
":	c #21B8FF",
"<	c #25BBFF",
"[	c #26BEFF",
"}	c #28BFFF",
"|	c #29C2FF",
"1	c #2BC5FF",
"2	c #2CC7FF",
"3	c #2DCBFF",
"!!!!!!!!'&&>!!!!!!!!!!!!!)!)))))",
"122<)!!*&&&+=]112(;>)!!))!~=#$$&",
"((_]%==$#+@/[|3__<[<~)!!!)=%#&&&",
"'>>,%+++%*%:|}:>,_|}~)!>-=##&&&&",
")))!'$$&;~!'>''!!)>''')=+#&&&&&&",
"$&=!!))))!)))!!!!!!)$&$&&&&&&&&&",
"#+#*!!!!>~12:,!!!!!!)'>'))%+####",
"==*=!'',]:<<<(>'!!';-)~>;-======",
"!!!)!//^<}>;/|^^'>=++='*++,~!!!!",
"!!!~]223:,!!>^32;+&&&##&&#;!!!!)",
"!>(31{~{!)!!!!{{!*+##&&&&@ =2^,>",
"!){(/)))!!!!!!))!>;;;&+#@/:<3|[}",
")!)''!!!!!!!!!)))!!!!=**%:|}[}|}",
",))))!!!!!!!!!{{{!)!!!!!!'>'''>,",
"$$$$%!!!!!!),]323(,)!!!!!!!!!!;&",
"&&&&&%)~!!'<1[^^^<2}!)!!)!!,$%$&",
"&&&&&#*===)(<(>'>/:_!)!!!!,%##&&",
"&&&&&%$$$%!'>'!!!'>>)!'>>>%#&&&&",
"&&&#%)!!!!!!!!!!!!!!)!*#&#&&&&&&",
"#+*'>!!!!!!!!!!!!!!!'%$+@@#&&&&&",
",-'!''')!)*%,~!!!~'*%#.~<<> @###",
"!!)!//({''%%=,---,=+##-:||(!!***",
"!!!^333<!~!~=#&&&&&$&#|:,,<31!!!",
"'[3}~{!:31!))'''')))''~!))!{~!!!",
")]/]))'{/^!!!!!!~-%=!!!!!!!!)**%",
"!)''!!!)''!!!)===%#&===>!!,;=###",
">,'!!!!!!!!>>-####&###+='>%+#&&&",
"&#=!)))!!))%#&&&####&&&&&&&&&&&&",
"&&$%%%$=!%$&&#@ :21}@@&&&&&&&&&&",
"&###&&#$=&&&#*::(///:(&#&&&&&&&#",
"%%%%&&&&#&&&#*}|=  &}<&#&&&&&&&#",
")!!-#&&&&&&&&&@@#&&&@+&&&&&&&&&&"};
